<svg width="24" height="24" viewBox="0 0 24 24" fill="none" xmlns="http://www.w3.org/2000/svg">
<path d="M12 15.002C13.1046 15.002 14 14.1065 14 13.002C14 11.8974 13.1046 11.002 12 11.002C10.8954 11.002 10 11.8974 10 13.002C10 14.1065 10.8954 15.002 12 15.002Z" fill="#001A34" fill-opacity="0.4"/>
<path d="M12.1109 3.00195C14.516 3.00195 15.2684 3.94637 15.666 5.18623C20.0173 5.7373 21 7.64564 21 12.502C21 18.502 19.5 20.002 12 20.002C4.5 20.002 3 18.502 3 12.502C3 7.56096 4.01722 5.67165 8.56473 5.15864C8.9647 3.93239 9.72367 3.00195 12.1109 3.00195ZM8 9.00195C8 8.44967 7.55228 8.00195 7 8.00195C6.44772 8.00195 6 8.44967 6 9.00195C6 9.55424 6.44772 10.002 7 10.002C7.55228 10.002 8 9.55424 8 9.00195ZM12 17.002C14.2091 17.002 16 15.2111 16 13.002C16 10.7928 14.2091 9.00195 12 9.00195C9.79086 9.00195 8 10.7928 8 13.002C8 15.2111 9.79086 17.002 12 17.002Z" fill="#001A34" fill-opacity="0.4"/>
</svg>
