<svg width="24" height="24" viewBox="0 0 24 24" fill="none" xmlns="http://www.w3.org/2000/svg">
<path d="M14.692 5.69585C15.0603 5.4912 15.0569 5.22734 14.6833 5.03242C13.3666 4.34544 12.7082 4.00195 12 4.00195C11.2918 4.00195 10.6334 4.34544 9.31672 5.03242L7.31672 6.07589C5.70297 6.91784 4.8961 7.33881 4.44805 8.09528C4 8.85175 4 9.79308 4 11.6757V13.3282C4 15.2108 4 16.1522 4.44805 16.9086C4.8961 17.6651 5.70297 18.0861 7.31672 18.928L9.31672 19.9715C10.6334 20.6585 11.2918 21.002 12 21.002C12.7082 21.002 13.3666 20.6585 14.6833 19.9715L16.6833 18.928C18.297 18.0861 19.1039 17.6651 19.552 16.9086C20 16.1522 20 15.2108 20 13.3282V11.6757C20 9.79308 20 8.85175 19.552 8.09528C19.2231 7.54 18.7008 7.16548 17.808 6.67254C17.4405 6.46962 17.4193 6.4686 17.0447 6.67668L11 10.002C10.6565 10.1928 10.2614 10.396 10.0902 10.7711C10 10.9688 10 11.1465 10 11.502V14.002C10 14.5543 9.55228 15.002 9 15.002C8.44772 15.002 8 14.5543 8 14.002V10.002C8 9.63885 8.19689 9.30423 8.51436 9.12786L14.692 5.69585Z" fill="#001A34" fill-opacity="0.4"/>
</svg>
