<svg width="24" height="24" viewBox="0 0 24 24" fill="none" xmlns="http://www.w3.org/2000/svg">
<path d="M17 21.002H12C4 21.002 4 20.002 4 12.002C4 4.002 4.00002 3.00195 11 3.00195H17C19.5 3.00195 20 3.50195 20 6.00195V18.002C20 20.5019 19.5 21.002 17 21.002ZM9.00002 19.002H18C19 19.002 19 18.502 19 17.502C19 16.502 19 16.0019 18 16.0019L14.7171 16.0019C12.5026 16.0018 10.3756 16.0018 8 16.0019C7.49986 16.0019 6 16.002 6 17.002C6 18.002 7.00002 19.002 9.00002 19.002ZM8 7.00195C8 7.55424 8.44772 8.00195 9 8.00195H15C15.5523 8.00195 16 7.55424 16 7.00195C16 6.44967 15.5523 6.00195 15 6.00195H9C8.44772 6.00195 8 6.44967 8 7.00195ZM9 10.002C8.44772 10.002 8 10.4497 8 11.002C8 11.5542 8.44772 12.002 9 12.002H11C11.5523 12.002 12 11.5542 12 11.002C12 10.4497 11.5523 10.002 11 10.002H9Z" fill="#001A34" fill-opacity="0.4"/>
</svg>
